<svg id="Layer_1" enable-background="new 0 0 512 512" height="512" viewBox="0 0 512 512" width="512" xmlns="http://www.w3.org/2000/svg"><g><g><g><g><g><g><g id="XMLID_1311_"><g id="XMLID_1312_"><g id="XMLID_1313_"><g id="XMLID_1314_"><g id="XMLID_1315_"><g id="XMLID_1316_"><g id="XMLID_1333_"><g id="XMLID_1334_"><g id="XMLID_1335_"><g id="XMLID_1336_"><g id="XMLID_1337_"><g id="XMLID_1338_"><g id="XMLID_1339_"><g id="XMLID_1340_"><g><path d="m512 256c0 62.88-22.68 120.47-60.3 165.04-46.96 55.63-117.2 54.763-195.7 54.763-78.91 0-149.49.487-196.45-55.653-37.17-44.44-59.55-101.68-59.55-164.15 0-141.38 114.62-256 256-256s256 114.62 256 256z" fill="#41f2f2"/></g></g></g></g></g></g></g></g></g></g></g></g></g></g></g></g></g></g></g><path d="m510.283 226.366-158.739-158.738-112.931 235.194 186.973 142.125c9.337-6.503 18.068-14.375 26.114-23.906 37.62-44.571 60.3-102.161 60.3-165.041 0-10.025-.596-19.909-1.717-29.634z" fill="#11c5ce"/><path d="m255.948 29.842c-49.845 0-120.611 26.889-120.611 106.351v174.272c0 29.492 23.162 42.898 60.305 42.898h60.305s23.162 0 60.305 0 60.306-13.406 60.306-42.898v-174.272c.001-79.462-70.765-106.351-120.61-106.351z" fill="#633409"/><path d="m376.56 136.19v174.27c0 7.51-1.5 13.98-4.36 19.45-.65 1.26-1.37 2.46-2.17 3.6-9.27 13.42-27.98 19.75-53.21 19.85h-32.29c-18.12 0-28.58 0-28.58 0v-323.52c49.84 0 120.61 26.89 120.61 106.35z" fill="#422005"/><g><path d="m205.547 272.707h100.803v114.532h-100.803z" fill="#ffc07b" transform="matrix(1 -.001 .001 1 -.363 .282)"/></g><g><path d="m306.4 387.18-50.45.06h-1.81l1.81-2.02v-112.52l50.35-.05v1.1l.02 17.82.03 38.28.02 23.51.01 5.48z" fill="#f49c45"/></g><path d="m344.548 158.41c-3.802-56.835-49.801-77.794-88.705-77.754s-84.859 21.093-88.545 77.936c-10.058 1.956-17.191 15.159-16.055 25.827l1.749 24.278c1.192 11.203 11.049 19.372 21.901 18.143l1.872-.205c22.294 59.675 57.165 65.863 79.3 69.336 22.127-3.518 56.986-9.778 79.157-69.498l1.872.201c10.855 1.206 20.694-6.983 21.863-18.188l1.699-24.281c1.115-10.671-6.045-23.859-16.108-25.795z" fill="#ffdbb0"/><path d="m360.66 184.2-1.7 24.28c-1.17 11.21-11.01 19.4-21.87 18.19l-1.87-.2c-2.45 6.61-5.06 12.56-7.79 17.93-3.15 6.2-6.46 11.61-9.89 16.35-3.64 5.06-7.41 9.35-11.24 13-17.58 16.75-36.4 20.02-50.23 22.22-.04-.01-.08-.01-.12-.02v-215.29c38.89 0 84.8 20.96 88.6 77.75 10.06 1.94 17.22 15.12 16.11 25.79z" fill="#ffc07b"/><path d="m207.075 77.908-3.831 1.237c-34.155 11.031-57.3 42.828-57.3 78.721v40.882c0 26.1 13.391 50.374 35.469 64.294l.58.366c5.98 3.771 13.764-.557 13.71-7.627-.175-22.669-.39-64.739.053-99.266 34.392-8.131 54.075-30.404 60.193-42.859 6.103 12.426 25.706 34.623 59.947 42.802.443 34.426.23 76.369.056 99.103-.055 7.114 7.818 11.437 13.793 7.576 21.671-14.001 34.759-38.04 34.759-63.84v-42.319c0-35.462-22.603-66.979-56.191-78.354-32.794-11.106-68.291-11.356-101.238-.716z" fill="#633409"/><path d="m364.5 156.98v42.32c0 12.9-3.27 25.36-9.25 36.34s-14.67 20.5-25.51 27.5c-1.5.96-3.11 1.43-4.69 1.45-2.97.04-5.81-1.43-7.51-3.84-1-1.44-1.6-3.21-1.59-5.19.11-14.27.24-36.11.2-58.91-.01-13.52-.09-27.38-.25-40.19-34.25-8.18-53.85-30.38-59.95-42.81v-43.53c.22-.01.45-.01.67-.01 17.47 0 34.93 2.84 51.69 8.51 33.59 11.38 56.19 42.9 56.19 78.36z" fill="#422005"/><path d="m451.7 381.844v39.196c-44.26 52.43-109.19 86.83-182.23 90.61-4.46.23-8.95.35-13.47.35-16.298 0-26.648-13.702-42.1-16.614-16.981-3.2-38.962 4.101-54.58-2.276-38.98-15.91-73.17-41.16-99.77-72.96v-38.316c0-28.666 23.238-51.904 51.904-51.904h94.106l50.462 55.372 93.966-49.373 49.798-6c28.671.001 51.914 23.244 51.914 51.915z" fill="#fff"/><path d="m451.7 381.84v39.2c-44.26 52.43-109.19 86.83-182.23 90.61-4.46.23-8.95.35-13.47.35h-.05v-124.76h-1.81l1.81-2.02.07.08 50.36-26.46 10.44-5.48 33.17-17.43 20.04-2.42 29.76-3.58c28.67 0 51.91 23.24 51.91 51.91z" fill="#dbdbdb"/><path d="m273.283 302.822h-34.67c-29.906 0-54.149-24.243-54.149-54.149v-52.021h142.969v52.021c-.001 29.905-24.244 54.149-54.15 54.149z" fill="#633409"/><path d="m327.43 196.65v52.02c0 5.54-.83 10.89-2.38 15.92-3.33 10.84-9.96 20.22-18.73 26.98-9.14 7.06-20.59 11.25-33.04 11.25h-17.33v-106.17z" fill="#422005"/><path d="m399.786 329.93-143.786 182.07c-34.21 0-66.85-6.71-96.754-18.971l146.37-163.18z" fill="#ed2020"/><path d="m399.79 329.93-143.79 182.07h-.05v-124.76h-1.81l1.81-2.02 28.58-31.86 21.09-23.51h.73l65.85.06z" fill="#b70404"/><g><path d="m225.024 232.801h61.849v30h-61.849z" fill="#ffdbb0"/></g></g><path d="m255.95 385.22v2.02h-1.81z" fill="#422005"/><g><path d="m255.95 232.8h30.92v30h-30.92z" fill="#ffc07b"/></g></g></svg>