<?xml version="1.0" encoding="iso-8859-1"?>
<!-- Generator: Adobe Illustrator 19.0.0, SVG Export Plug-In . SVG Version: 6.00 Build 0)  -->
<svg version="1.1" id="Capa_1" xmlns="http://www.w3.org/2000/svg" xmlns:xlink="http://www.w3.org/1999/xlink" x="0px" y="0px"
	 viewBox="0 0 512 512" style="enable-background:new 0 0 512 512;" xml:space="preserve">
<path style="fill:#6099B1;" d="M437.018,75.017C388.666,26.676,324.379,0.053,256,0.053S123.334,26.676,74.982,75.017
	C26.629,123.359,0,187.633,0,256s26.629,132.641,74.982,180.983c48.351,48.341,112.639,74.964,181.018,74.964
	s132.666-26.623,181.018-74.964C485.371,388.641,512,324.367,512,256S485.371,123.359,437.018,75.017z"/>
<path style="fill:#DEECF1;" d="M256,0.053c-68.379,0-132.666,26.623-181.018,74.964C26.629,123.359,0,187.633,0,256
	s26.629,132.641,74.982,180.983c48.351,48.341,112.639,74.964,181.018,74.964V0.053z"/>
<path style="fill:#3B4A51;" d="M437.018,75.017C388.666,26.676,324.379,0.053,256,0.053S123.334,26.676,74.982,75.017
	C26.629,123.359,0,187.633,0,256s26.629,132.641,74.982,180.983c48.351,48.341,112.639,74.964,181.018,74.964
	s132.666-26.623,181.018-74.964C485.371,388.641,512,324.367,512,256S485.371,123.359,437.018,75.017z M481.442,240.977h-48.914
	c-7.247-85.83-75.983-154.422-161.898-161.475V30.586C383.457,37.831,474,128.229,481.442,240.977z M240.584,271.023v48.339
	c-23.767-5.768-42.477-24.551-48.117-48.339H240.584z M192.466,240.977c5.64-23.788,24.35-42.571,48.117-48.339v48.339H192.466z
	 M270.63,271.023h48.904c-5.702,24.049-24.765,42.979-48.904,48.521V271.023z M270.63,240.977v-48.521
	c24.14,5.542,43.202,24.472,48.904,48.521H270.63z M240.584,161.991c-40.377,6.586-72.31,38.594-78.743,78.986h-52.205
	c7.035-68.99,61.98-124.02,130.948-131.232V161.991z M161.841,271.023c6.432,40.392,38.366,72.4,78.743,78.986v52.246
	c-68.968-7.211-123.913-62.242-130.948-131.232H161.841z M270.63,350.139c40.749-6.296,73.054-38.462,79.529-79.116h52.205
	c-7.062,69.252-62.397,124.438-131.733,131.312v-52.196H270.63z M350.159,240.977c-6.474-40.654-38.78-72.821-79.529-79.116v-52.195
	c69.336,6.874,124.672,62.06,131.733,131.312L350.159,240.977L350.159,240.977z M240.584,30.636v48.936
	C155.037,86.979,86.697,155.41,79.472,240.977H30.558C37.983,128.491,128.123,38.25,240.584,30.636z M30.558,271.023h48.914
	c7.225,85.568,75.565,153.998,161.112,161.405v48.936C128.123,473.75,37.983,383.509,30.558,271.023z M270.63,481.414v-48.916
	c85.915-7.054,154.65-75.645,161.898-161.475h48.914C474,383.771,383.457,474.169,270.63,481.414z"/>
<path style="fill:#6099B1;" d="M256,0.053c-68.379,0-132.666,26.623-181.018,74.964C26.629,123.359,0,187.633,0,256
	s26.629,132.641,74.982,180.983c48.351,48.341,112.639,74.964,181.018,74.964V0.053z M240.584,481.364
	C128.123,473.75,37.983,383.509,30.558,271.023h48.914c7.225,85.568,75.565,153.998,161.112,161.405V481.364z M240.584,402.255
	c-68.968-7.211-123.913-62.242-130.948-131.232h52.205c6.432,40.392,38.366,72.4,78.743,78.986V402.255z M240.584,319.362
	c-23.767-5.768-42.477-24.551-48.117-48.339h48.117V319.362z M240.584,240.977h-48.117c5.64-23.788,24.35-42.571,48.117-48.339
	V240.977z M240.584,161.991c-40.377,6.586-72.31,38.594-78.743,78.986h-52.205c7.035-68.99,61.98-124.02,130.948-131.232V161.991z
	 M240.584,79.572C155.037,86.979,86.697,155.41,79.472,240.977H30.558C37.983,128.491,128.123,38.25,240.584,30.636V79.572z"/>
<g>
	<circle style="fill:#FF3F5C;" cx="426.39" cy="426.39" r="27.2"/>
	<circle style="fill:#FF3F5C;" cx="93.85" cy="256" r="27.2"/>
	<circle style="fill:#FF3F5C;" cx="370.59" cy="141.43" r="27.2"/>
</g>
<g>
</g>
<g>
</g>
<g>
</g>
<g>
</g>
<g>
</g>
<g>
</g>
<g>
</g>
<g>
</g>
<g>
</g>
<g>
</g>
<g>
</g>
<g>
</g>
<g>
</g>
<g>
</g>
<g>
</g>
</svg>
